<svg xmlns="http://www.w3.org/2000/svg" fill="none" viewBox="0 0 100 100">
  <rect width="100" height="100" fill="#0EA5E9" rx="10"/>
  <path fill="#fff" d="M51.705 85c-6.858 0-12.917-.701-18.178-2.104-5.26-1.402-9.347-2.851-12.259-4.347V59.055a67.547 67.547 0 0 0 11.837 3.927c4.133.935 7.844 1.59 11.131 1.963 3.288.28 5.637.42 7.046.42 1.597 0 2.724-.233 3.382-.7.657-.561.986-1.216.986-1.964 0-1.028-.846-1.87-2.536-2.524-1.691-.748-4.885-1.683-9.582-2.805a92.596 92.596 0 0 1-11.273-3.506c-3.57-1.496-6.529-3.553-8.877-6.17C21.127 45.076 20 41.57 20 37.175c0-5.422 1.268-9.676 3.805-12.761 2.536-3.086 6.153-5.236 10.85-6.452C39.352 16.654 44.846 16 51.14 16c3.57 0 6.904.187 10.005.561 3.1.374 5.307.654 6.622.841l13.105 8.415-6.341 15.006-24.66-5.33c-3.005 0-4.508.983-4.508 2.946 0 2.057 2.16 3.6 6.482 4.628a279.46 279.46 0 0 1 10.427 2.525c3.57.84 6.81 1.963 9.723 3.365 3.005 1.403 5.401 3.273 7.186 5.61C81.06 56.904 82 59.99 82 63.823c0 7.106-2.583 12.435-7.75 15.988C69.177 83.271 61.662 85 51.705 85Z"/>
</svg>
